<?xml version="1.0" encoding="utf-8"?>
<!-- Generator: Adobe Illustrator 22.1.0, SVG Export Plug-In . SVG Version: 6.00 Build 0)  -->
<svg version="1.1" id="Layer_1" xmlns="http://www.w3.org/2000/svg" xmlns:xlink="http://www.w3.org/1999/xlink" x="0px" y="0px"
	 viewBox="0 0 283.5 283.5" style="enable-background:new 0 0 283.5 283.5;" xml:space="preserve">
<style type="text/css">
	.st0{fill:#FFFFFF;}
</style>
<g id="surface1">
	<path class="st0" d="M223.8,255.7H51.8c-3.7,0-9-2.6-9-7.2c0-1.1,0.4-2.1,1-2.9c28.3-33.9,56.7-67.6,86.6-102.9
		C100.2,105.8,44.3,38,43.7,37.3c-1.1-1.4-1.3-3.2-0.6-4.8c0.7-1.6,2.3-2.6,4.1-2.6h175.7c2.5,0,4.5,2,4.5,4.5v52
		c0,2.5-2,4.5-4.5,4.5h-5.9c-4.6,0-7.5-2.2-8.4-6.5c-0.2-0.8-0.4-1.6-0.5-2.4c-0.1-0.4-0.1-0.9-0.3-1.4c-5.4-18-7.2-24-30.5-24
		c-16.1,0.4-43.8,0.4-58.5,0.5l14.5,19c13.6,17.8,26.9,35.3,41.3,54.1c1.3,1.7,1.2,4-0.1,5.6l-65.3,79.3l79.5,0
		c14.2,0,23.8-6.2,29.2-19c0.2-0.5,0.6-1.4,1-2.3c0.2-0.5,0.5-1,0.7-1.5c2.2-7.6,8-12.2,15.4-12.2c1.5,0,2.4,0.2,2.4,0.2
		c2.4,0.5,4,2.9,3.6,5.3l-12.6,66.4C227.9,254.2,226,255.7,223.8,255.7z"/>
</g>
</svg>
